<svg width="1024" height="1024" viewBox="0 0 1024 1024" fill="none" xmlns="http://www.w3.org/2000/svg">
<!-- White rounded square container -->
<rect width="1024" height="1024" rx="180" fill="white"/>
<!-- Cat at 70% centered: scale=19.9, offset=153.6 -->
<g transform="translate(153.6, 153.6) scale(19.911)">
  <ellipse cx="18.0625" cy="19.75" rx="14.5" ry="13.5" fill="#FDB731"/>
  <path d="M11.2922 3.88304L6.00781 12.25L15.5078 6.75L12.8903 3.75853C12.4499 3.25529 11.6493 3.31767 11.2922 3.88304Z" fill="#FDB731"/>
  <path d="M24.4444 3.80704L29.7397 11.75L20.2397 6.53947L22.8778 3.68325C23.317 3.20773 24.0854 3.26844 24.4444 3.80704Z" fill="#FDB731"/>
  <circle cx="13.6953" cy="17.0625" r="1.8125" fill="#000006"/>
  <circle cx="21.3828" cy="17.0625" r="1.8125" fill="#000006"/>
  <path d="M14.8125 23.4375L18.0625 21.125L19.9688 22.4375" stroke="#FE5B00" stroke-linecap="round"/>
  <path d="M18.5021 21.4563C18.2648 21.7119 17.8602 21.7119 17.6229 21.4563L16.5701 20.3228C16.2135 19.9389 16.4858 19.3145 17.0097 19.3145L19.1153 19.3145C19.6392 19.3145 19.9115 19.9389 19.5549 20.3228L18.5021 21.4563Z" fill="#FE5B00"/>
  <path d="M6 19.9375L2.75 19.375M6 23.0625L2.75 23.8125" stroke="#000006" stroke-linecap="round"/>
  <path d="M30.0522 19.9375L33.25 19.375M30.0522 23.0625L33.25 23.8125" stroke="#000006" stroke-linecap="round"/>
</g>
</svg>
